<?xml version="1.0" encoding="utf-8"?>
<!-- Generator: Adobe Illustrator 16.0.0, SVG Export Plug-In . SVG Version: 6.00 Build 0)  -->
<svg version="1.2" baseProfile="tiny" id="Layer_1" xmlns="http://www.w3.org/2000/svg" xmlns:xlink="http://www.w3.org/1999/xlink"
	 x="0px" y="0px" width="127px" height="117px" viewBox="0 0 127 117" xml:space="preserve">
<g>
	<polygon points="121,117 0,117 0,0 127,0 127,2 2,2 2,115 119,115 119,44 26,44 26,100 24,100 24,42 121,42 	"/>
</g>
<g>
	<rect x="41" y="54" width="64" height="46"/>
</g>
<g>
	<path d="M30,21.6h6.2v7.8c-2.3,1-4.5,1.5-6.8,1.5c-3,0-5.5-0.9-7.3-2.7c-1.8-1.8-2.7-4-2.7-6.6c0-2.8,0.9-5,2.8-6.9
		s4.3-2.7,7.1-2.7c1,0,2,0.1,3,0.3c0.9,0.2,2.1,0.6,3.5,1.2v2.7c-2.2-1.3-4.4-1.9-6.5-1.9c-2,0-3.7,0.7-5.1,2.1s-2.1,3.1-2.1,5
		c0,2.1,0.7,3.8,2.1,5.1s3.2,2,5.3,2c1.1,0,2.3-0.2,3.8-0.7l0.3-0.1v-3.8H30V21.6z"/>
	<path d="M46,12.1h1.9l8.3,18.5h-2.7L51,25.2h-7.9l-2.3,5.5h-2.7L46,12.1z M49.9,22.9l-3-6.7l-2.8,6.7H49.9z"/>
	<path d="M58.3,12.2h2.6v16h8.3v2.4H58.3V12.2z"/>
	<path d="M71.7,12.2h2.6v16h8.3v2.4H71.7V12.2z"/>
	<path d="M85,12.2h10.4v2.3h-7.8v5.6h7.5v2.4h-7.5v5.7h8.1v2.3H85V12.2z"/>
	<path d="M98.8,30.7V12.2h4.6c1.9,0,3.3,0.5,4.4,1.4c1.1,0.9,1.6,2.2,1.6,3.7c0,1.1-0.3,2-0.8,2.8s-1.3,1.4-2.3,1.8
		c0.6,0.4,1.2,0.9,1.7,1.6s1.4,1.8,2.4,3.5c0.6,1,1.2,1.8,1.5,2.4l1,1.3h-3.1l-0.8-1.2c0,0-0.1-0.1-0.2-0.2l-0.5-0.7l-0.8-1.3
		l-0.9-1.4c-0.5-0.8-1-1.4-1.5-1.8c-0.5-0.4-0.9-0.8-1.2-1c-0.4-0.2-1-0.3-1.8-0.3h-0.7v8H98.8z M102.2,14.5h-0.8v5.8h1
		c1.3,0,2.3-0.1,2.7-0.3c0.5-0.2,0.9-0.6,1.2-1c0.3-0.5,0.4-1,0.4-1.6c0-0.6-0.2-1.1-0.5-1.6s-0.7-0.8-1.3-1
		C104.4,14.6,103.5,14.5,102.2,14.5z"/>
	<path d="M123.5,12.2h3.2l-6.8,8.7v9.7h-2.7v-9.7l-6.8-8.7h3.2l4.9,6.3L123.5,12.2z"/>
</g>
</svg>
